<svg width="20" height="20" viewBox="0 0 20 20" fill="none" xmlns="http://www.w3.org/2000/svg">
  <path d="M19.6 10.2273C19.6 9.51818 19.5364 8.83636 19.4182 8.18182H10V12.05H15.3818C15.15 13.3 14.4455 14.3545 13.3727 15.0773V17.6773H16.5909C18.4727 15.9636 19.6 13.3636 19.6 10.2273Z" fill="#4285F4"/>
  <path d="M10 20C12.7 20 14.9636 19.1045 16.5909 17.6773L13.3727 15.0773C12.4909 15.6727 11.3455 16.0227 10 16.0227C7.39545 16.0227 5.19091 14.2909 4.40455 11.95H1.07275V14.6318C2.69091 17.9909 6.09091 20 10 20Z" fill="#34A853"/>
  <path d="M4.40455 11.95C4.20455 11.3545 4.09091 10.7182 4.09091 10.0455C4.09091 9.37273 4.20455 8.73636 4.40455 8.14091V5.45909H1.07273C0.390909 6.80909 0 8.37727 0 10.0455C0 11.7136 0.390909 13.2818 1.07273 14.6318L4.40455 11.95Z" fill="#FBBC05"/>
  <path d="M10 4.01818C11.4818 4.01818 12.7909 4.52727 13.8045 5.49091L16.6636 2.63182C14.9591 1.04545 12.6955 0 10 0C6.09091 0 2.69091 2.00909 1.07275 5.36818L4.40455 8.05C5.19091 5.70909 7.39545 4.01818 10 4.01818Z" fill="#EA4335"/>
</svg>
